<svg xmlns="http://www.w3.org/2000/svg" xmlns:xlink="http://www.w3.org/1999/xlink" viewBox="0,0,256,256" width="50px" height="50px" fill-rule="nonzero"><g fill="#ffffff" fill-rule="nonzero" stroke="none" stroke-width="1" stroke-linecap="butt" stroke-linejoin="miter" stroke-miterlimit="10" stroke-dasharray="" stroke-dashoffset="0" font-family="none" font-weight="none" font-size="none" text-anchor="none" style="mix-blend-mode: normal"><g transform="scale(4,4)"><path d="M28,11c-1.105,0 -2,0.895 -2,2v1h-13c-1.104,0 -2,0.896 -2,2c0,1.104 0.896,2 2,2h1.16016l2.54102,30.49805c0.256,3.085 2.88447,5.50195 5.98047,5.50195h18.63672c3.096,0 5.72347,-2.41695 5.98047,-5.50195l2.54102,-30.49805h1.16016c1.104,0 2,-0.896 2,-2c0,-1.104 -0.896,-2 -2,-2h-13v-1c0,-1.105 -0.895,-2 -2,-2zM18.17383,18h27.6543l-2.51562,30.16602c-0.086,1.028 -0.96019,1.83398 -1.99219,1.83398h-18.63867c-1.033,0 -1.90914,-0.80598 -1.99414,-1.83398z"></path></g></g></svg>